<mxfile host="app.diagrams.net" agent="Mozilla/5.0 (Windows NT 10.0; Win64; x64) AppleWebKit/537.36 (KHTML, like Gecko) Chrome/128.0.0.0 Safari/537.36 Edg/128.0.0.0" version="24.7.13">
  <diagram name="PÃ¡gina-1" id="8LBw_HYNsOCcc-Pko1uT">
    <mxGraphModel dx="872" dy="1688" grid="1" gridSize="10" guides="1" tooltips="1" connect="1" arrows="1" fold="1" page="1" pageScale="1" pageWidth="827" pageHeight="1169" math="0" shadow="0">
      <root>
        <mxCell id="0" />
        <mxCell id="1" parent="0" />
        <mxCell id="yu6-pFyYOCUdTaRoDDku-1" value="personajes" style="shape=table;startSize=30;container=1;collapsible=1;childLayout=tableLayout;fixedRows=1;rowLines=0;fontStyle=1;align=center;resizeLast=1;html=1;" vertex="1" parent="1">
          <mxGeometry x="340" y="10" width="186" height="390" as="geometry" />
        </mxCell>
        <mxCell id="yu6-pFyYOCUdTaRoDDku-2" value="" style="shape=tableRow;horizontal=0;startSize=0;swimlaneHead=0;swimlaneBody=0;fillColor=none;collapsible=0;dropTarget=0;points=[[0,0.5],[1,0.5]];portConstraint=eastwest;top=0;left=0;right=0;bottom=1;" vertex="1" parent="yu6-pFyYOCUdTaRoDDku-1">
          <mxGeometry y="30" width="186" height="30" as="geometry" />
        </mxCell>
        <mxCell id="yu6-pFyYOCUdTaRoDDku-3" value="PK" style="shape=partialRectangle;connectable=0;fillColor=none;top=0;left=0;bottom=0;right=0;fontStyle=1;overflow=hidden;whiteSpace=wrap;html=1;" vertex="1" parent="yu6-pFyYOCUdTaRoDDku-2">
          <mxGeometry width="30" height="30" as="geometry">
            <mxRectangle width="30" height="30" as="alternateBounds" />
          </mxGeometry>
        </mxCell>
        <mxCell id="yu6-pFyYOCUdTaRoDDku-4" value="personaje_id (INT AUTO)" style="shape=partialRectangle;connectable=0;fillColor=none;top=0;left=0;bottom=0;right=0;align=left;spacingLeft=6;fontStyle=5;overflow=hidden;whiteSpace=wrap;html=1;" vertex="1" parent="yu6-pFyYOCUdTaRoDDku-2">
          <mxGeometry x="30" width="156" height="30" as="geometry">
            <mxRectangle width="156" height="30" as="alternateBounds" />
          </mxGeometry>
        </mxCell>
        <mxCell id="yu6-pFyYOCUdTaRoDDku-5" value="" style="shape=tableRow;horizontal=0;startSize=0;swimlaneHead=0;swimlaneBody=0;fillColor=none;collapsible=0;dropTarget=0;points=[[0,0.5],[1,0.5]];portConstraint=eastwest;top=0;left=0;right=0;bottom=0;" vertex="1" parent="yu6-pFyYOCUdTaRoDDku-1">
          <mxGeometry y="60" width="186" height="30" as="geometry" />
        </mxCell>
        <mxCell id="yu6-pFyYOCUdTaRoDDku-6" value="" style="shape=partialRectangle;connectable=0;fillColor=none;top=0;left=0;bottom=0;right=0;editable=1;overflow=hidden;whiteSpace=wrap;html=1;" vertex="1" parent="yu6-pFyYOCUdTaRoDDku-5">
          <mxGeometry width="30" height="30" as="geometry">
            <mxRectangle width="30" height="30" as="alternateBounds" />
          </mxGeometry>
        </mxCell>
        <mxCell id="yu6-pFyYOCUdTaRoDDku-7" value="nombre (VARCHAR(20))" style="shape=partialRectangle;connectable=0;fillColor=none;top=0;left=0;bottom=0;right=0;align=left;spacingLeft=6;overflow=hidden;whiteSpace=wrap;html=1;" vertex="1" parent="yu6-pFyYOCUdTaRoDDku-5">
          <mxGeometry x="30" width="156" height="30" as="geometry">
            <mxRectangle width="156" height="30" as="alternateBounds" />
          </mxGeometry>
        </mxCell>
        <mxCell id="yu6-pFyYOCUdTaRoDDku-8" value="" style="shape=tableRow;horizontal=0;startSize=0;swimlaneHead=0;swimlaneBody=0;fillColor=none;collapsible=0;dropTarget=0;points=[[0,0.5],[1,0.5]];portConstraint=eastwest;top=0;left=0;right=0;bottom=0;" vertex="1" parent="yu6-pFyYOCUdTaRoDDku-1">
          <mxGeometry y="90" width="186" height="30" as="geometry" />
        </mxCell>
        <mxCell id="yu6-pFyYOCUdTaRoDDku-9" value="FK" style="shape=partialRectangle;connectable=0;fillColor=none;top=0;left=0;bottom=0;right=0;editable=1;overflow=hidden;whiteSpace=wrap;html=1;" vertex="1" parent="yu6-pFyYOCUdTaRoDDku-8">
          <mxGeometry width="30" height="30" as="geometry">
            <mxRectangle width="30" height="30" as="alternateBounds" />
          </mxGeometry>
        </mxCell>
        <mxCell id="yu6-pFyYOCUdTaRoDDku-10" value="&lt;b&gt;armadura (INT)&lt;/b&gt;" style="shape=partialRectangle;connectable=0;fillColor=none;top=0;left=0;bottom=0;right=0;align=left;spacingLeft=6;overflow=hidden;whiteSpace=wrap;html=1;" vertex="1" parent="yu6-pFyYOCUdTaRoDDku-8">
          <mxGeometry x="30" width="156" height="30" as="geometry">
            <mxRectangle width="156" height="30" as="alternateBounds" />
          </mxGeometry>
        </mxCell>
        <mxCell id="yu6-pFyYOCUdTaRoDDku-11" value="" style="shape=tableRow;horizontal=0;startSize=0;swimlaneHead=0;swimlaneBody=0;fillColor=none;collapsible=0;dropTarget=0;points=[[0,0.5],[1,0.5]];portConstraint=eastwest;top=0;left=0;right=0;bottom=0;" vertex="1" parent="yu6-pFyYOCUdTaRoDDku-1">
          <mxGeometry y="120" width="186" height="30" as="geometry" />
        </mxCell>
        <mxCell id="yu6-pFyYOCUdTaRoDDku-12" value="FK" style="shape=partialRectangle;connectable=0;fillColor=none;top=0;left=0;bottom=0;right=0;editable=1;overflow=hidden;whiteSpace=wrap;html=1;" vertex="1" parent="yu6-pFyYOCUdTaRoDDku-11">
          <mxGeometry width="30" height="30" as="geometry">
            <mxRectangle width="30" height="30" as="alternateBounds" />
          </mxGeometry>
        </mxCell>
        <mxCell id="yu6-pFyYOCUdTaRoDDku-13" value="&lt;b&gt;signo (INT)&lt;/b&gt;" style="shape=partialRectangle;connectable=0;fillColor=none;top=0;left=0;bottom=0;right=0;align=left;spacingLeft=6;overflow=hidden;whiteSpace=wrap;html=1;" vertex="1" parent="yu6-pFyYOCUdTaRoDDku-11">
          <mxGeometry x="30" width="156" height="30" as="geometry">
            <mxRectangle width="156" height="30" as="alternateBounds" />
          </mxGeometry>
        </mxCell>
        <mxCell id="yu6-pFyYOCUdTaRoDDku-14" value="" style="shape=tableRow;horizontal=0;startSize=0;swimlaneHead=0;swimlaneBody=0;fillColor=none;collapsible=0;dropTarget=0;points=[[0,0.5],[1,0.5]];portConstraint=eastwest;top=0;left=0;right=0;bottom=0;" vertex="1" parent="yu6-pFyYOCUdTaRoDDku-1">
          <mxGeometry y="150" width="186" height="30" as="geometry" />
        </mxCell>
        <mxCell id="yu6-pFyYOCUdTaRoDDku-15" value="" style="shape=partialRectangle;connectable=0;fillColor=none;top=0;left=0;bottom=0;right=0;editable=1;overflow=hidden;whiteSpace=wrap;html=1;" vertex="1" parent="yu6-pFyYOCUdTaRoDDku-14">
          <mxGeometry width="30" height="30" as="geometry">
            <mxRectangle width="30" height="30" as="alternateBounds" />
          </mxGeometry>
        </mxCell>
        <mxCell id="yu6-pFyYOCUdTaRoDDku-16" value="nacimiento (DATE)" style="shape=partialRectangle;connectable=0;fillColor=none;top=0;left=0;bottom=0;right=0;align=left;spacingLeft=6;overflow=hidden;whiteSpace=wrap;html=1;" vertex="1" parent="yu6-pFyYOCUdTaRoDDku-14">
          <mxGeometry x="30" width="156" height="30" as="geometry">
            <mxRectangle width="156" height="30" as="alternateBounds" />
          </mxGeometry>
        </mxCell>
        <mxCell id="yu6-pFyYOCUdTaRoDDku-17" value="" style="shape=tableRow;horizontal=0;startSize=0;swimlaneHead=0;swimlaneBody=0;fillColor=none;collapsible=0;dropTarget=0;points=[[0,0.5],[1,0.5]];portConstraint=eastwest;top=0;left=0;right=0;bottom=0;" vertex="1" parent="yu6-pFyYOCUdTaRoDDku-1">
          <mxGeometry y="180" width="186" height="30" as="geometry" />
        </mxCell>
        <mxCell id="yu6-pFyYOCUdTaRoDDku-18" value="FK" style="shape=partialRectangle;connectable=0;fillColor=none;top=0;left=0;bottom=0;right=0;editable=1;overflow=hidden;whiteSpace=wrap;html=1;" vertex="1" parent="yu6-pFyYOCUdTaRoDDku-17">
          <mxGeometry width="30" height="30" as="geometry">
            <mxRectangle width="30" height="30" as="alternateBounds" />
          </mxGeometry>
        </mxCell>
        <mxCell id="yu6-pFyYOCUdTaRoDDku-19" value="&lt;b&gt;pais (INT)&lt;/b&gt;" style="shape=partialRectangle;connectable=0;fillColor=none;top=0;left=0;bottom=0;right=0;align=left;spacingLeft=6;overflow=hidden;whiteSpace=wrap;html=1;" vertex="1" parent="yu6-pFyYOCUdTaRoDDku-17">
          <mxGeometry x="30" width="156" height="30" as="geometry">
            <mxRectangle width="156" height="30" as="alternateBounds" />
          </mxGeometry>
        </mxCell>
        <mxCell id="yu6-pFyYOCUdTaRoDDku-20" value="" style="shape=tableRow;horizontal=0;startSize=0;swimlaneHead=0;swimlaneBody=0;fillColor=none;collapsible=0;dropTarget=0;points=[[0,0.5],[1,0.5]];portConstraint=eastwest;top=0;left=0;right=0;bottom=0;" vertex="1" parent="yu6-pFyYOCUdTaRoDDku-1">
          <mxGeometry y="210" width="186" height="30" as="geometry" />
        </mxCell>
        <mxCell id="yu6-pFyYOCUdTaRoDDku-21" value="FK" style="shape=partialRectangle;connectable=0;fillColor=none;top=0;left=0;bottom=0;right=0;editable=1;overflow=hidden;whiteSpace=wrap;html=1;" vertex="1" parent="yu6-pFyYOCUdTaRoDDku-20">
          <mxGeometry width="30" height="30" as="geometry">
            <mxRectangle width="30" height="30" as="alternateBounds" />
          </mxGeometry>
        </mxCell>
        <mxCell id="yu6-pFyYOCUdTaRoDDku-22" value="&lt;b&gt;entrenamiento (INT)&lt;/b&gt;" style="shape=partialRectangle;connectable=0;fillColor=none;top=0;left=0;bottom=0;right=0;align=left;spacingLeft=6;overflow=hidden;whiteSpace=wrap;html=1;" vertex="1" parent="yu6-pFyYOCUdTaRoDDku-20">
          <mxGeometry x="30" width="156" height="30" as="geometry">
            <mxRectangle width="156" height="30" as="alternateBounds" />
          </mxGeometry>
        </mxCell>
        <mxCell id="yu6-pFyYOCUdTaRoDDku-45" value="" style="shape=tableRow;horizontal=0;startSize=0;swimlaneHead=0;swimlaneBody=0;fillColor=none;collapsible=0;dropTarget=0;points=[[0,0.5],[1,0.5]];portConstraint=eastwest;top=0;left=0;right=0;bottom=0;" vertex="1" parent="yu6-pFyYOCUdTaRoDDku-1">
          <mxGeometry y="240" width="186" height="30" as="geometry" />
        </mxCell>
        <mxCell id="yu6-pFyYOCUdTaRoDDku-46" value="FK" style="shape=partialRectangle;connectable=0;fillColor=none;top=0;left=0;bottom=0;right=0;editable=1;overflow=hidden;whiteSpace=wrap;html=1;" vertex="1" parent="yu6-pFyYOCUdTaRoDDku-45">
          <mxGeometry width="30" height="30" as="geometry">
            <mxRectangle width="30" height="30" as="alternateBounds" />
          </mxGeometry>
        </mxCell>
        <mxCell id="yu6-pFyYOCUdTaRoDDku-47" value="&lt;b&gt;maestro (INT)&lt;/b&gt;" style="shape=partialRectangle;connectable=0;fillColor=none;top=0;left=0;bottom=0;right=0;align=left;spacingLeft=6;overflow=hidden;whiteSpace=wrap;html=1;" vertex="1" parent="yu6-pFyYOCUdTaRoDDku-45">
          <mxGeometry x="30" width="156" height="30" as="geometry">
            <mxRectangle width="156" height="30" as="alternateBounds" />
          </mxGeometry>
        </mxCell>
        <mxCell id="yu6-pFyYOCUdTaRoDDku-64" value="" style="shape=tableRow;horizontal=0;startSize=0;swimlaneHead=0;swimlaneBody=0;fillColor=none;collapsible=0;dropTarget=0;points=[[0,0.5],[1,0.5]];portConstraint=eastwest;top=0;left=0;right=0;bottom=0;" vertex="1" parent="yu6-pFyYOCUdTaRoDDku-1">
          <mxGeometry y="270" width="186" height="30" as="geometry" />
        </mxCell>
        <mxCell id="yu6-pFyYOCUdTaRoDDku-65" value="FK" style="shape=partialRectangle;connectable=0;fillColor=none;top=0;left=0;bottom=0;right=0;editable=1;overflow=hidden;whiteSpace=wrap;html=1;" vertex="1" parent="yu6-pFyYOCUdTaRoDDku-64">
          <mxGeometry width="30" height="30" as="geometry">
            <mxRectangle width="30" height="30" as="alternateBounds" />
          </mxGeometry>
        </mxCell>
        <mxCell id="yu6-pFyYOCUdTaRoDDku-66" value="&lt;b&gt;ejercito (INT)&lt;/b&gt;" style="shape=partialRectangle;connectable=0;fillColor=none;top=0;left=0;bottom=0;right=0;align=left;spacingLeft=6;overflow=hidden;whiteSpace=wrap;html=1;" vertex="1" parent="yu6-pFyYOCUdTaRoDDku-64">
          <mxGeometry x="30" width="156" height="30" as="geometry">
            <mxRectangle width="156" height="30" as="alternateBounds" />
          </mxGeometry>
        </mxCell>
        <mxCell id="yu6-pFyYOCUdTaRoDDku-67" value="" style="shape=tableRow;horizontal=0;startSize=0;swimlaneHead=0;swimlaneBody=0;fillColor=none;collapsible=0;dropTarget=0;points=[[0,0.5],[1,0.5]];portConstraint=eastwest;top=0;left=0;right=0;bottom=0;" vertex="1" parent="yu6-pFyYOCUdTaRoDDku-1">
          <mxGeometry y="300" width="186" height="30" as="geometry" />
        </mxCell>
        <mxCell id="yu6-pFyYOCUdTaRoDDku-68" value="FK" style="shape=partialRectangle;connectable=0;fillColor=none;top=0;left=0;bottom=0;right=0;editable=1;overflow=hidden;whiteSpace=wrap;html=1;" vertex="1" parent="yu6-pFyYOCUdTaRoDDku-67">
          <mxGeometry width="30" height="30" as="geometry">
            <mxRectangle width="30" height="30" as="alternateBounds" />
          </mxGeometry>
        </mxCell>
        <mxCell id="yu6-pFyYOCUdTaRoDDku-69" value="&lt;b&gt;rango (INT)&lt;/b&gt;" style="shape=partialRectangle;connectable=0;fillColor=none;top=0;left=0;bottom=0;right=0;align=left;spacingLeft=6;overflow=hidden;whiteSpace=wrap;html=1;" vertex="1" parent="yu6-pFyYOCUdTaRoDDku-67">
          <mxGeometry x="30" width="156" height="30" as="geometry">
            <mxRectangle width="156" height="30" as="alternateBounds" />
          </mxGeometry>
        </mxCell>
        <mxCell id="yu6-pFyYOCUdTaRoDDku-70" value="" style="shape=tableRow;horizontal=0;startSize=0;swimlaneHead=0;swimlaneBody=0;fillColor=none;collapsible=0;dropTarget=0;points=[[0,0.5],[1,0.5]];portConstraint=eastwest;top=0;left=0;right=0;bottom=0;" vertex="1" parent="yu6-pFyYOCUdTaRoDDku-1">
          <mxGeometry y="330" width="186" height="30" as="geometry" />
        </mxCell>
        <mxCell id="yu6-pFyYOCUdTaRoDDku-71" value="" style="shape=partialRectangle;connectable=0;fillColor=none;top=0;left=0;bottom=0;right=0;editable=1;overflow=hidden;whiteSpace=wrap;html=1;" vertex="1" parent="yu6-pFyYOCUdTaRoDDku-70">
          <mxGeometry width="30" height="30" as="geometry">
            <mxRectangle width="30" height="30" as="alternateBounds" />
          </mxGeometry>
        </mxCell>
        <mxCell id="yu6-pFyYOCUdTaRoDDku-72" value="foto (VARCHAR(255))" style="shape=partialRectangle;connectable=0;fillColor=none;top=0;left=0;bottom=0;right=0;align=left;spacingLeft=6;overflow=hidden;whiteSpace=wrap;html=1;" vertex="1" parent="yu6-pFyYOCUdTaRoDDku-70">
          <mxGeometry x="30" width="156" height="30" as="geometry">
            <mxRectangle width="156" height="30" as="alternateBounds" />
          </mxGeometry>
        </mxCell>
        <mxCell id="yu6-pFyYOCUdTaRoDDku-73" value="" style="shape=tableRow;horizontal=0;startSize=0;swimlaneHead=0;swimlaneBody=0;fillColor=none;collapsible=0;dropTarget=0;points=[[0,0.5],[1,0.5]];portConstraint=eastwest;top=0;left=0;right=0;bottom=0;" vertex="1" parent="yu6-pFyYOCUdTaRoDDku-1">
          <mxGeometry y="360" width="186" height="30" as="geometry" />
        </mxCell>
        <mxCell id="yu6-pFyYOCUdTaRoDDku-74" value="" style="shape=partialRectangle;connectable=0;fillColor=none;top=0;left=0;bottom=0;right=0;editable=1;overflow=hidden;whiteSpace=wrap;html=1;" vertex="1" parent="yu6-pFyYOCUdTaRoDDku-73">
          <mxGeometry width="30" height="30" as="geometry">
            <mxRectangle width="30" height="30" as="alternateBounds" />
          </mxGeometry>
        </mxCell>
        <mxCell id="yu6-pFyYOCUdTaRoDDku-75" value="canonico (BOOLEAN)" style="shape=partialRectangle;connectable=0;fillColor=none;top=0;left=0;bottom=0;right=0;align=left;spacingLeft=6;overflow=hidden;whiteSpace=wrap;html=1;" vertex="1" parent="yu6-pFyYOCUdTaRoDDku-73">
          <mxGeometry x="30" width="156" height="30" as="geometry">
            <mxRectangle width="156" height="30" as="alternateBounds" />
          </mxGeometry>
        </mxCell>
        <mxCell id="yu6-pFyYOCUdTaRoDDku-51" value="armaduras" style="shape=table;startSize=30;container=1;collapsible=1;childLayout=tableLayout;fixedRows=1;rowLines=0;fontStyle=1;align=center;resizeLast=1;html=1;" vertex="1" parent="1">
          <mxGeometry x="600" y="70" width="180" height="120" as="geometry" />
        </mxCell>
        <mxCell id="yu6-pFyYOCUdTaRoDDku-52" value="" style="shape=tableRow;horizontal=0;startSize=0;swimlaneHead=0;swimlaneBody=0;fillColor=none;collapsible=0;dropTarget=0;points=[[0,0.5],[1,0.5]];portConstraint=eastwest;top=0;left=0;right=0;bottom=1;" vertex="1" parent="yu6-pFyYOCUdTaRoDDku-51">
          <mxGeometry y="30" width="180" height="30" as="geometry" />
        </mxCell>
        <mxCell id="yu6-pFyYOCUdTaRoDDku-53" value="PK" style="shape=partialRectangle;connectable=0;fillColor=none;top=0;left=0;bottom=0;right=0;fontStyle=1;overflow=hidden;whiteSpace=wrap;html=1;" vertex="1" parent="yu6-pFyYOCUdTaRoDDku-52">
          <mxGeometry width="30" height="30" as="geometry">
            <mxRectangle width="30" height="30" as="alternateBounds" />
          </mxGeometry>
        </mxCell>
        <mxCell id="yu6-pFyYOCUdTaRoDDku-54" value="armadura_id (INT AUTO)" style="shape=partialRectangle;connectable=0;fillColor=none;top=0;left=0;bottom=0;right=0;align=left;spacingLeft=6;fontStyle=5;overflow=hidden;whiteSpace=wrap;html=1;" vertex="1" parent="yu6-pFyYOCUdTaRoDDku-52">
          <mxGeometry x="30" width="150" height="30" as="geometry">
            <mxRectangle width="150" height="30" as="alternateBounds" />
          </mxGeometry>
        </mxCell>
        <mxCell id="yu6-pFyYOCUdTaRoDDku-58" value="" style="shape=tableRow;horizontal=0;startSize=0;swimlaneHead=0;swimlaneBody=0;fillColor=none;collapsible=0;dropTarget=0;points=[[0,0.5],[1,0.5]];portConstraint=eastwest;top=0;left=0;right=0;bottom=0;" vertex="1" parent="yu6-pFyYOCUdTaRoDDku-51">
          <mxGeometry y="60" width="180" height="30" as="geometry" />
        </mxCell>
        <mxCell id="yu6-pFyYOCUdTaRoDDku-59" value="" style="shape=partialRectangle;connectable=0;fillColor=none;top=0;left=0;bottom=0;right=0;editable=1;overflow=hidden;whiteSpace=wrap;html=1;" vertex="1" parent="yu6-pFyYOCUdTaRoDDku-58">
          <mxGeometry width="30" height="30" as="geometry">
            <mxRectangle width="30" height="30" as="alternateBounds" />
          </mxGeometry>
        </mxCell>
        <mxCell id="yu6-pFyYOCUdTaRoDDku-60" value="nombre (VARCHAR(60))" style="shape=partialRectangle;connectable=0;fillColor=none;top=0;left=0;bottom=0;right=0;align=left;spacingLeft=6;overflow=hidden;whiteSpace=wrap;html=1;" vertex="1" parent="yu6-pFyYOCUdTaRoDDku-58">
          <mxGeometry x="30" width="150" height="30" as="geometry">
            <mxRectangle width="150" height="30" as="alternateBounds" />
          </mxGeometry>
        </mxCell>
        <mxCell id="yu6-pFyYOCUdTaRoDDku-61" value="" style="shape=tableRow;horizontal=0;startSize=0;swimlaneHead=0;swimlaneBody=0;fillColor=none;collapsible=0;dropTarget=0;points=[[0,0.5],[1,0.5]];portConstraint=eastwest;top=0;left=0;right=0;bottom=0;" vertex="1" parent="yu6-pFyYOCUdTaRoDDku-51">
          <mxGeometry y="90" width="180" height="30" as="geometry" />
        </mxCell>
        <mxCell id="yu6-pFyYOCUdTaRoDDku-62" value="FK" style="shape=partialRectangle;connectable=0;fillColor=none;top=0;left=0;bottom=0;right=0;editable=1;overflow=hidden;whiteSpace=wrap;html=1;" vertex="1" parent="yu6-pFyYOCUdTaRoDDku-61">
          <mxGeometry width="30" height="30" as="geometry">
            <mxRectangle width="30" height="30" as="alternateBounds" />
          </mxGeometry>
        </mxCell>
        <mxCell id="yu6-pFyYOCUdTaRoDDku-63" value="&lt;b&gt;armadura_tipo (INT)&lt;/b&gt;" style="shape=partialRectangle;connectable=0;fillColor=none;top=0;left=0;bottom=0;right=0;align=left;spacingLeft=6;overflow=hidden;whiteSpace=wrap;html=1;" vertex="1" parent="yu6-pFyYOCUdTaRoDDku-61">
          <mxGeometry x="30" width="150" height="30" as="geometry">
            <mxRectangle width="150" height="30" as="alternateBounds" />
          </mxGeometry>
        </mxCell>
        <mxCell id="yu6-pFyYOCUdTaRoDDku-76" value="armaduras_tipos" style="shape=table;startSize=30;container=1;collapsible=1;childLayout=tableLayout;fixedRows=1;rowLines=0;fontStyle=1;align=center;resizeLast=1;html=1;" vertex="1" parent="1">
          <mxGeometry x="870" y="220" width="220" height="90" as="geometry" />
        </mxCell>
        <mxCell id="yu6-pFyYOCUdTaRoDDku-77" value="" style="shape=tableRow;horizontal=0;startSize=0;swimlaneHead=0;swimlaneBody=0;fillColor=none;collapsible=0;dropTarget=0;points=[[0,0.5],[1,0.5]];portConstraint=eastwest;top=0;left=0;right=0;bottom=1;" vertex="1" parent="yu6-pFyYOCUdTaRoDDku-76">
          <mxGeometry y="30" width="220" height="30" as="geometry" />
        </mxCell>
        <mxCell id="yu6-pFyYOCUdTaRoDDku-78" value="PK" style="shape=partialRectangle;connectable=0;fillColor=none;top=0;left=0;bottom=0;right=0;fontStyle=1;overflow=hidden;whiteSpace=wrap;html=1;" vertex="1" parent="yu6-pFyYOCUdTaRoDDku-77">
          <mxGeometry width="30" height="30" as="geometry">
            <mxRectangle width="30" height="30" as="alternateBounds" />
          </mxGeometry>
        </mxCell>
        <mxCell id="yu6-pFyYOCUdTaRoDDku-79" value="armadura_tipo_id (INT AUTO)" style="shape=partialRectangle;connectable=0;fillColor=none;top=0;left=0;bottom=0;right=0;align=left;spacingLeft=6;fontStyle=5;overflow=hidden;whiteSpace=wrap;html=1;" vertex="1" parent="yu6-pFyYOCUdTaRoDDku-77">
          <mxGeometry x="30" width="190" height="30" as="geometry">
            <mxRectangle width="190" height="30" as="alternateBounds" />
          </mxGeometry>
        </mxCell>
        <mxCell id="yu6-pFyYOCUdTaRoDDku-80" value="" style="shape=tableRow;horizontal=0;startSize=0;swimlaneHead=0;swimlaneBody=0;fillColor=none;collapsible=0;dropTarget=0;points=[[0,0.5],[1,0.5]];portConstraint=eastwest;top=0;left=0;right=0;bottom=0;" vertex="1" parent="yu6-pFyYOCUdTaRoDDku-76">
          <mxGeometry y="60" width="220" height="30" as="geometry" />
        </mxCell>
        <mxCell id="yu6-pFyYOCUdTaRoDDku-81" value="" style="shape=partialRectangle;connectable=0;fillColor=none;top=0;left=0;bottom=0;right=0;editable=1;overflow=hidden;whiteSpace=wrap;html=1;" vertex="1" parent="yu6-pFyYOCUdTaRoDDku-80">
          <mxGeometry width="30" height="30" as="geometry">
            <mxRectangle width="30" height="30" as="alternateBounds" />
          </mxGeometry>
        </mxCell>
        <mxCell id="yu6-pFyYOCUdTaRoDDku-82" value="armadura_tipo (VARCHAT(20))" style="shape=partialRectangle;connectable=0;fillColor=none;top=0;left=0;bottom=0;right=0;align=left;spacingLeft=6;overflow=hidden;whiteSpace=wrap;html=1;" vertex="1" parent="yu6-pFyYOCUdTaRoDDku-80">
          <mxGeometry x="30" width="190" height="30" as="geometry">
            <mxRectangle width="190" height="30" as="alternateBounds" />
          </mxGeometry>
        </mxCell>
        <mxCell id="yu6-pFyYOCUdTaRoDDku-89" value="armaduras_versiones" style="shape=table;startSize=30;container=1;collapsible=1;childLayout=tableLayout;fixedRows=1;rowLines=0;fontStyle=1;align=center;resizeLast=1;html=1;" vertex="1" parent="1">
          <mxGeometry x="870" y="-10" width="240" height="150" as="geometry" />
        </mxCell>
        <mxCell id="yu6-pFyYOCUdTaRoDDku-90" value="" style="shape=tableRow;horizontal=0;startSize=0;swimlaneHead=0;swimlaneBody=0;fillColor=none;collapsible=0;dropTarget=0;points=[[0,0.5],[1,0.5]];portConstraint=eastwest;top=0;left=0;right=0;bottom=1;" vertex="1" parent="yu6-pFyYOCUdTaRoDDku-89">
          <mxGeometry y="30" width="240" height="30" as="geometry" />
        </mxCell>
        <mxCell id="yu6-pFyYOCUdTaRoDDku-91" value="PK" style="shape=partialRectangle;connectable=0;fillColor=none;top=0;left=0;bottom=0;right=0;fontStyle=1;overflow=hidden;whiteSpace=wrap;html=1;" vertex="1" parent="yu6-pFyYOCUdTaRoDDku-90">
          <mxGeometry width="30" height="30" as="geometry">
            <mxRectangle width="30" height="30" as="alternateBounds" />
          </mxGeometry>
        </mxCell>
        <mxCell id="yu6-pFyYOCUdTaRoDDku-92" value="armadura_version_id (INT AUTO)" style="shape=partialRectangle;connectable=0;fillColor=none;top=0;left=0;bottom=0;right=0;align=left;spacingLeft=6;fontStyle=5;overflow=hidden;whiteSpace=wrap;html=1;" vertex="1" parent="yu6-pFyYOCUdTaRoDDku-90">
          <mxGeometry x="30" width="210" height="30" as="geometry">
            <mxRectangle width="210" height="30" as="alternateBounds" />
          </mxGeometry>
        </mxCell>
        <mxCell id="yu6-pFyYOCUdTaRoDDku-93" value="" style="shape=tableRow;horizontal=0;startSize=0;swimlaneHead=0;swimlaneBody=0;fillColor=none;collapsible=0;dropTarget=0;points=[[0,0.5],[1,0.5]];portConstraint=eastwest;top=0;left=0;right=0;bottom=0;" vertex="1" parent="yu6-pFyYOCUdTaRoDDku-89">
          <mxGeometry y="60" width="240" height="30" as="geometry" />
        </mxCell>
        <mxCell id="yu6-pFyYOCUdTaRoDDku-94" value="FK" style="shape=partialRectangle;connectable=0;fillColor=none;top=0;left=0;bottom=0;right=0;editable=1;overflow=hidden;whiteSpace=wrap;html=1;" vertex="1" parent="yu6-pFyYOCUdTaRoDDku-93">
          <mxGeometry width="30" height="30" as="geometry">
            <mxRectangle width="30" height="30" as="alternateBounds" />
          </mxGeometry>
        </mxCell>
        <mxCell id="yu6-pFyYOCUdTaRoDDku-95" value="&lt;b&gt;armadura_id (INT)&lt;/b&gt;" style="shape=partialRectangle;connectable=0;fillColor=none;top=0;left=0;bottom=0;right=0;align=left;spacingLeft=6;overflow=hidden;whiteSpace=wrap;html=1;" vertex="1" parent="yu6-pFyYOCUdTaRoDDku-93">
          <mxGeometry x="30" width="210" height="30" as="geometry">
            <mxRectangle width="210" height="30" as="alternateBounds" />
          </mxGeometry>
        </mxCell>
        <mxCell id="yu6-pFyYOCUdTaRoDDku-96" value="" style="shape=tableRow;horizontal=0;startSize=0;swimlaneHead=0;swimlaneBody=0;fillColor=none;collapsible=0;dropTarget=0;points=[[0,0.5],[1,0.5]];portConstraint=eastwest;top=0;left=0;right=0;bottom=0;" vertex="1" parent="yu6-pFyYOCUdTaRoDDku-89">
          <mxGeometry y="90" width="240" height="30" as="geometry" />
        </mxCell>
        <mxCell id="yu6-pFyYOCUdTaRoDDku-97" value="" style="shape=partialRectangle;connectable=0;fillColor=none;top=0;left=0;bottom=0;right=0;editable=1;overflow=hidden;whiteSpace=wrap;html=1;" vertex="1" parent="yu6-pFyYOCUdTaRoDDku-96">
          <mxGeometry width="30" height="30" as="geometry">
            <mxRectangle width="30" height="30" as="alternateBounds" />
          </mxGeometry>
        </mxCell>
        <mxCell id="yu6-pFyYOCUdTaRoDDku-98" value="version (VARCHAR(20)" style="shape=partialRectangle;connectable=0;fillColor=none;top=0;left=0;bottom=0;right=0;align=left;spacingLeft=6;overflow=hidden;whiteSpace=wrap;html=1;" vertex="1" parent="yu6-pFyYOCUdTaRoDDku-96">
          <mxGeometry x="30" width="210" height="30" as="geometry">
            <mxRectangle width="210" height="30" as="alternateBounds" />
          </mxGeometry>
        </mxCell>
        <mxCell id="yu6-pFyYOCUdTaRoDDku-99" value="" style="shape=tableRow;horizontal=0;startSize=0;swimlaneHead=0;swimlaneBody=0;fillColor=none;collapsible=0;dropTarget=0;points=[[0,0.5],[1,0.5]];portConstraint=eastwest;top=0;left=0;right=0;bottom=0;" vertex="1" parent="yu6-pFyYOCUdTaRoDDku-89">
          <mxGeometry y="120" width="240" height="30" as="geometry" />
        </mxCell>
        <mxCell id="yu6-pFyYOCUdTaRoDDku-100" value="" style="shape=partialRectangle;connectable=0;fillColor=none;top=0;left=0;bottom=0;right=0;editable=1;overflow=hidden;whiteSpace=wrap;html=1;" vertex="1" parent="yu6-pFyYOCUdTaRoDDku-99">
          <mxGeometry width="30" height="30" as="geometry">
            <mxRectangle width="30" height="30" as="alternateBounds" />
          </mxGeometry>
        </mxCell>
        <mxCell id="yu6-pFyYOCUdTaRoDDku-101" value="foto (VARCHAR(255))" style="shape=partialRectangle;connectable=0;fillColor=none;top=0;left=0;bottom=0;right=0;align=left;spacingLeft=6;overflow=hidden;whiteSpace=wrap;html=1;" vertex="1" parent="yu6-pFyYOCUdTaRoDDku-99">
          <mxGeometry x="30" width="210" height="30" as="geometry">
            <mxRectangle width="210" height="30" as="alternateBounds" />
          </mxGeometry>
        </mxCell>
        <mxCell id="yu6-pFyYOCUdTaRoDDku-102" value="signos" style="shape=table;startSize=30;container=1;collapsible=1;childLayout=tableLayout;fixedRows=1;rowLines=0;fontStyle=1;align=center;resizeLast=1;html=1;" vertex="1" parent="1">
          <mxGeometry x="40" y="20" width="180" height="90" as="geometry" />
        </mxCell>
        <mxCell id="yu6-pFyYOCUdTaRoDDku-103" value="" style="shape=tableRow;horizontal=0;startSize=0;swimlaneHead=0;swimlaneBody=0;fillColor=none;collapsible=0;dropTarget=0;points=[[0,0.5],[1,0.5]];portConstraint=eastwest;top=0;left=0;right=0;bottom=1;" vertex="1" parent="yu6-pFyYOCUdTaRoDDku-102">
          <mxGeometry y="30" width="180" height="30" as="geometry" />
        </mxCell>
        <mxCell id="yu6-pFyYOCUdTaRoDDku-104" value="PK" style="shape=partialRectangle;connectable=0;fillColor=none;top=0;left=0;bottom=0;right=0;fontStyle=1;overflow=hidden;whiteSpace=wrap;html=1;" vertex="1" parent="yu6-pFyYOCUdTaRoDDku-103">
          <mxGeometry width="30" height="30" as="geometry">
            <mxRectangle width="30" height="30" as="alternateBounds" />
          </mxGeometry>
        </mxCell>
        <mxCell id="yu6-pFyYOCUdTaRoDDku-105" value="signo_id (INT AUTO)" style="shape=partialRectangle;connectable=0;fillColor=none;top=0;left=0;bottom=0;right=0;align=left;spacingLeft=6;fontStyle=5;overflow=hidden;whiteSpace=wrap;html=1;" vertex="1" parent="yu6-pFyYOCUdTaRoDDku-103">
          <mxGeometry x="30" width="150" height="30" as="geometry">
            <mxRectangle width="150" height="30" as="alternateBounds" />
          </mxGeometry>
        </mxCell>
        <mxCell id="yu6-pFyYOCUdTaRoDDku-106" value="" style="shape=tableRow;horizontal=0;startSize=0;swimlaneHead=0;swimlaneBody=0;fillColor=none;collapsible=0;dropTarget=0;points=[[0,0.5],[1,0.5]];portConstraint=eastwest;top=0;left=0;right=0;bottom=0;" vertex="1" parent="yu6-pFyYOCUdTaRoDDku-102">
          <mxGeometry y="60" width="180" height="30" as="geometry" />
        </mxCell>
        <mxCell id="yu6-pFyYOCUdTaRoDDku-107" value="" style="shape=partialRectangle;connectable=0;fillColor=none;top=0;left=0;bottom=0;right=0;editable=1;overflow=hidden;whiteSpace=wrap;html=1;" vertex="1" parent="yu6-pFyYOCUdTaRoDDku-106">
          <mxGeometry width="30" height="30" as="geometry">
            <mxRectangle width="30" height="30" as="alternateBounds" />
          </mxGeometry>
        </mxCell>
        <mxCell id="yu6-pFyYOCUdTaRoDDku-108" value="signo (VARCHAR(25))" style="shape=partialRectangle;connectable=0;fillColor=none;top=0;left=0;bottom=0;right=0;align=left;spacingLeft=6;overflow=hidden;whiteSpace=wrap;html=1;" vertex="1" parent="yu6-pFyYOCUdTaRoDDku-106">
          <mxGeometry x="30" width="150" height="30" as="geometry">
            <mxRectangle width="150" height="30" as="alternateBounds" />
          </mxGeometry>
        </mxCell>
        <mxCell id="yu6-pFyYOCUdTaRoDDku-119" value="ejercitos" style="shape=table;startSize=30;container=1;collapsible=1;childLayout=tableLayout;fixedRows=1;rowLines=0;fontStyle=1;align=center;resizeLast=1;html=1;" vertex="1" parent="1">
          <mxGeometry x="40" y="250" width="180" height="90" as="geometry" />
        </mxCell>
        <mxCell id="yu6-pFyYOCUdTaRoDDku-120" value="" style="shape=tableRow;horizontal=0;startSize=0;swimlaneHead=0;swimlaneBody=0;fillColor=none;collapsible=0;dropTarget=0;points=[[0,0.5],[1,0.5]];portConstraint=eastwest;top=0;left=0;right=0;bottom=1;" vertex="1" parent="yu6-pFyYOCUdTaRoDDku-119">
          <mxGeometry y="30" width="180" height="30" as="geometry" />
        </mxCell>
        <mxCell id="yu6-pFyYOCUdTaRoDDku-121" value="PK" style="shape=partialRectangle;connectable=0;fillColor=none;top=0;left=0;bottom=0;right=0;fontStyle=1;overflow=hidden;whiteSpace=wrap;html=1;" vertex="1" parent="yu6-pFyYOCUdTaRoDDku-120">
          <mxGeometry width="30" height="30" as="geometry">
            <mxRectangle width="30" height="30" as="alternateBounds" />
          </mxGeometry>
        </mxCell>
        <mxCell id="yu6-pFyYOCUdTaRoDDku-122" value="ejercito_id (INT AUTO)" style="shape=partialRectangle;connectable=0;fillColor=none;top=0;left=0;bottom=0;right=0;align=left;spacingLeft=6;fontStyle=5;overflow=hidden;whiteSpace=wrap;html=1;" vertex="1" parent="yu6-pFyYOCUdTaRoDDku-120">
          <mxGeometry x="30" width="150" height="30" as="geometry">
            <mxRectangle width="150" height="30" as="alternateBounds" />
          </mxGeometry>
        </mxCell>
        <mxCell id="yu6-pFyYOCUdTaRoDDku-123" value="" style="shape=tableRow;horizontal=0;startSize=0;swimlaneHead=0;swimlaneBody=0;fillColor=none;collapsible=0;dropTarget=0;points=[[0,0.5],[1,0.5]];portConstraint=eastwest;top=0;left=0;right=0;bottom=0;" vertex="1" parent="yu6-pFyYOCUdTaRoDDku-119">
          <mxGeometry y="60" width="180" height="30" as="geometry" />
        </mxCell>
        <mxCell id="yu6-pFyYOCUdTaRoDDku-124" value="" style="shape=partialRectangle;connectable=0;fillColor=none;top=0;left=0;bottom=0;right=0;editable=1;overflow=hidden;whiteSpace=wrap;html=1;" vertex="1" parent="yu6-pFyYOCUdTaRoDDku-123">
          <mxGeometry width="30" height="30" as="geometry">
            <mxRectangle width="30" height="30" as="alternateBounds" />
          </mxGeometry>
        </mxCell>
        <mxCell id="yu6-pFyYOCUdTaRoDDku-125" value="ejercito (VARCHAR(50))" style="shape=partialRectangle;connectable=0;fillColor=none;top=0;left=0;bottom=0;right=0;align=left;spacingLeft=6;overflow=hidden;whiteSpace=wrap;html=1;" vertex="1" parent="yu6-pFyYOCUdTaRoDDku-123">
          <mxGeometry x="30" width="150" height="30" as="geometry">
            <mxRectangle width="150" height="30" as="alternateBounds" />
          </mxGeometry>
        </mxCell>
        <mxCell id="yu6-pFyYOCUdTaRoDDku-132" value="rangos" style="shape=table;startSize=30;container=1;collapsible=1;childLayout=tableLayout;fixedRows=1;rowLines=0;fontStyle=1;align=center;resizeLast=1;html=1;" vertex="1" parent="1">
          <mxGeometry x="40" y="360" width="180" height="90" as="geometry" />
        </mxCell>
        <mxCell id="yu6-pFyYOCUdTaRoDDku-133" value="" style="shape=tableRow;horizontal=0;startSize=0;swimlaneHead=0;swimlaneBody=0;fillColor=none;collapsible=0;dropTarget=0;points=[[0,0.5],[1,0.5]];portConstraint=eastwest;top=0;left=0;right=0;bottom=1;" vertex="1" parent="yu6-pFyYOCUdTaRoDDku-132">
          <mxGeometry y="30" width="180" height="30" as="geometry" />
        </mxCell>
        <mxCell id="yu6-pFyYOCUdTaRoDDku-134" value="PK" style="shape=partialRectangle;connectable=0;fillColor=none;top=0;left=0;bottom=0;right=0;fontStyle=1;overflow=hidden;whiteSpace=wrap;html=1;" vertex="1" parent="yu6-pFyYOCUdTaRoDDku-133">
          <mxGeometry width="30" height="30" as="geometry">
            <mxRectangle width="30" height="30" as="alternateBounds" />
          </mxGeometry>
        </mxCell>
        <mxCell id="yu6-pFyYOCUdTaRoDDku-135" value="rango_id (INT AUTO)" style="shape=partialRectangle;connectable=0;fillColor=none;top=0;left=0;bottom=0;right=0;align=left;spacingLeft=6;fontStyle=5;overflow=hidden;whiteSpace=wrap;html=1;" vertex="1" parent="yu6-pFyYOCUdTaRoDDku-133">
          <mxGeometry x="30" width="150" height="30" as="geometry">
            <mxRectangle width="150" height="30" as="alternateBounds" />
          </mxGeometry>
        </mxCell>
        <mxCell id="yu6-pFyYOCUdTaRoDDku-136" value="" style="shape=tableRow;horizontal=0;startSize=0;swimlaneHead=0;swimlaneBody=0;fillColor=none;collapsible=0;dropTarget=0;points=[[0,0.5],[1,0.5]];portConstraint=eastwest;top=0;left=0;right=0;bottom=0;" vertex="1" parent="yu6-pFyYOCUdTaRoDDku-132">
          <mxGeometry y="60" width="180" height="30" as="geometry" />
        </mxCell>
        <mxCell id="yu6-pFyYOCUdTaRoDDku-137" value="" style="shape=partialRectangle;connectable=0;fillColor=none;top=0;left=0;bottom=0;right=0;editable=1;overflow=hidden;whiteSpace=wrap;html=1;" vertex="1" parent="yu6-pFyYOCUdTaRoDDku-136">
          <mxGeometry width="30" height="30" as="geometry">
            <mxRectangle width="30" height="30" as="alternateBounds" />
          </mxGeometry>
        </mxCell>
        <mxCell id="yu6-pFyYOCUdTaRoDDku-138" value="rango (VARCHAR(40))" style="shape=partialRectangle;connectable=0;fillColor=none;top=0;left=0;bottom=0;right=0;align=left;spacingLeft=6;overflow=hidden;whiteSpace=wrap;html=1;" vertex="1" parent="yu6-pFyYOCUdTaRoDDku-136">
          <mxGeometry x="30" width="150" height="30" as="geometry">
            <mxRectangle width="150" height="30" as="alternateBounds" />
          </mxGeometry>
        </mxCell>
        <mxCell id="yu6-pFyYOCUdTaRoDDku-145" value="tecnicas" style="shape=table;startSize=30;container=1;collapsible=1;childLayout=tableLayout;fixedRows=1;rowLines=0;fontStyle=1;align=center;resizeLast=1;html=1;" vertex="1" parent="1">
          <mxGeometry x="500" y="660" width="180" height="90" as="geometry" />
        </mxCell>
        <mxCell id="yu6-pFyYOCUdTaRoDDku-146" value="" style="shape=tableRow;horizontal=0;startSize=0;swimlaneHead=0;swimlaneBody=0;fillColor=none;collapsible=0;dropTarget=0;points=[[0,0.5],[1,0.5]];portConstraint=eastwest;top=0;left=0;right=0;bottom=1;" vertex="1" parent="yu6-pFyYOCUdTaRoDDku-145">
          <mxGeometry y="30" width="180" height="30" as="geometry" />
        </mxCell>
        <mxCell id="yu6-pFyYOCUdTaRoDDku-147" value="PK" style="shape=partialRectangle;connectable=0;fillColor=none;top=0;left=0;bottom=0;right=0;fontStyle=1;overflow=hidden;whiteSpace=wrap;html=1;" vertex="1" parent="yu6-pFyYOCUdTaRoDDku-146">
          <mxGeometry width="30" height="30" as="geometry">
            <mxRectangle width="30" height="30" as="alternateBounds" />
          </mxGeometry>
        </mxCell>
        <mxCell id="yu6-pFyYOCUdTaRoDDku-148" value="tecnica_Id (INT)" style="shape=partialRectangle;connectable=0;fillColor=none;top=0;left=0;bottom=0;right=0;align=left;spacingLeft=6;fontStyle=5;overflow=hidden;whiteSpace=wrap;html=1;" vertex="1" parent="yu6-pFyYOCUdTaRoDDku-146">
          <mxGeometry x="30" width="150" height="30" as="geometry">
            <mxRectangle width="150" height="30" as="alternateBounds" />
          </mxGeometry>
        </mxCell>
        <mxCell id="yu6-pFyYOCUdTaRoDDku-149" value="" style="shape=tableRow;horizontal=0;startSize=0;swimlaneHead=0;swimlaneBody=0;fillColor=none;collapsible=0;dropTarget=0;points=[[0,0.5],[1,0.5]];portConstraint=eastwest;top=0;left=0;right=0;bottom=0;" vertex="1" parent="yu6-pFyYOCUdTaRoDDku-145">
          <mxGeometry y="60" width="180" height="30" as="geometry" />
        </mxCell>
        <mxCell id="yu6-pFyYOCUdTaRoDDku-150" value="" style="shape=partialRectangle;connectable=0;fillColor=none;top=0;left=0;bottom=0;right=0;editable=1;overflow=hidden;whiteSpace=wrap;html=1;" vertex="1" parent="yu6-pFyYOCUdTaRoDDku-149">
          <mxGeometry width="30" height="30" as="geometry">
            <mxRectangle width="30" height="30" as="alternateBounds" />
          </mxGeometry>
        </mxCell>
        <mxCell id="yu6-pFyYOCUdTaRoDDku-151" value="tecnica (VARCHAR(45))" style="shape=partialRectangle;connectable=0;fillColor=none;top=0;left=0;bottom=0;right=0;align=left;spacingLeft=6;overflow=hidden;whiteSpace=wrap;html=1;" vertex="1" parent="yu6-pFyYOCUdTaRoDDku-149">
          <mxGeometry x="30" width="150" height="30" as="geometry">
            <mxRectangle width="150" height="30" as="alternateBounds" />
          </mxGeometry>
        </mxCell>
        <mxCell id="yu6-pFyYOCUdTaRoDDku-158" value="tecnicas_x_personajes" style="shape=table;startSize=30;container=1;collapsible=1;childLayout=tableLayout;fixedRows=1;rowLines=0;fontStyle=1;align=center;resizeLast=1;html=1;" vertex="1" parent="1">
          <mxGeometry x="500" y="500" width="180" height="120" as="geometry" />
        </mxCell>
        <mxCell id="yu6-pFyYOCUdTaRoDDku-159" value="" style="shape=tableRow;horizontal=0;startSize=0;swimlaneHead=0;swimlaneBody=0;fillColor=none;collapsible=0;dropTarget=0;points=[[0,0.5],[1,0.5]];portConstraint=eastwest;top=0;left=0;right=0;bottom=1;" vertex="1" parent="yu6-pFyYOCUdTaRoDDku-158">
          <mxGeometry y="30" width="180" height="30" as="geometry" />
        </mxCell>
        <mxCell id="yu6-pFyYOCUdTaRoDDku-160" value="PK" style="shape=partialRectangle;connectable=0;fillColor=none;top=0;left=0;bottom=0;right=0;fontStyle=1;overflow=hidden;whiteSpace=wrap;html=1;" vertex="1" parent="yu6-pFyYOCUdTaRoDDku-159">
          <mxGeometry width="30" height="30" as="geometry">
            <mxRectangle width="30" height="30" as="alternateBounds" />
          </mxGeometry>
        </mxCell>
        <mxCell id="yu6-pFyYOCUdTaRoDDku-161" value="txp_id (INT)" style="shape=partialRectangle;connectable=0;fillColor=none;top=0;left=0;bottom=0;right=0;align=left;spacingLeft=6;fontStyle=5;overflow=hidden;whiteSpace=wrap;html=1;" vertex="1" parent="yu6-pFyYOCUdTaRoDDku-159">
          <mxGeometry x="30" width="150" height="30" as="geometry">
            <mxRectangle width="150" height="30" as="alternateBounds" />
          </mxGeometry>
        </mxCell>
        <mxCell id="yu6-pFyYOCUdTaRoDDku-162" value="" style="shape=tableRow;horizontal=0;startSize=0;swimlaneHead=0;swimlaneBody=0;fillColor=none;collapsible=0;dropTarget=0;points=[[0,0.5],[1,0.5]];portConstraint=eastwest;top=0;left=0;right=0;bottom=0;" vertex="1" parent="yu6-pFyYOCUdTaRoDDku-158">
          <mxGeometry y="60" width="180" height="30" as="geometry" />
        </mxCell>
        <mxCell id="yu6-pFyYOCUdTaRoDDku-163" value="FK" style="shape=partialRectangle;connectable=0;fillColor=none;top=0;left=0;bottom=0;right=0;editable=1;overflow=hidden;whiteSpace=wrap;html=1;" vertex="1" parent="yu6-pFyYOCUdTaRoDDku-162">
          <mxGeometry width="30" height="30" as="geometry">
            <mxRectangle width="30" height="30" as="alternateBounds" />
          </mxGeometry>
        </mxCell>
        <mxCell id="yu6-pFyYOCUdTaRoDDku-164" value="&lt;b&gt;personaje_id (INT)&lt;/b&gt;" style="shape=partialRectangle;connectable=0;fillColor=none;top=0;left=0;bottom=0;right=0;align=left;spacingLeft=6;overflow=hidden;whiteSpace=wrap;html=1;" vertex="1" parent="yu6-pFyYOCUdTaRoDDku-162">
          <mxGeometry x="30" width="150" height="30" as="geometry">
            <mxRectangle width="150" height="30" as="alternateBounds" />
          </mxGeometry>
        </mxCell>
        <mxCell id="yu6-pFyYOCUdTaRoDDku-165" value="" style="shape=tableRow;horizontal=0;startSize=0;swimlaneHead=0;swimlaneBody=0;fillColor=none;collapsible=0;dropTarget=0;points=[[0,0.5],[1,0.5]];portConstraint=eastwest;top=0;left=0;right=0;bottom=0;" vertex="1" parent="yu6-pFyYOCUdTaRoDDku-158">
          <mxGeometry y="90" width="180" height="30" as="geometry" />
        </mxCell>
        <mxCell id="yu6-pFyYOCUdTaRoDDku-166" value="FK" style="shape=partialRectangle;connectable=0;fillColor=none;top=0;left=0;bottom=0;right=0;editable=1;overflow=hidden;whiteSpace=wrap;html=1;" vertex="1" parent="yu6-pFyYOCUdTaRoDDku-165">
          <mxGeometry width="30" height="30" as="geometry">
            <mxRectangle width="30" height="30" as="alternateBounds" />
          </mxGeometry>
        </mxCell>
        <mxCell id="yu6-pFyYOCUdTaRoDDku-167" value="&lt;b&gt;tecnica_id (INT)&lt;/b&gt;" style="shape=partialRectangle;connectable=0;fillColor=none;top=0;left=0;bottom=0;right=0;align=left;spacingLeft=6;overflow=hidden;whiteSpace=wrap;html=1;" vertex="1" parent="yu6-pFyYOCUdTaRoDDku-165">
          <mxGeometry x="30" width="150" height="30" as="geometry">
            <mxRectangle width="150" height="30" as="alternateBounds" />
          </mxGeometry>
        </mxCell>
        <mxCell id="yu6-pFyYOCUdTaRoDDku-171" value="franquicias" style="shape=table;startSize=30;container=1;collapsible=1;childLayout=tableLayout;fixedRows=1;rowLines=0;fontStyle=1;align=center;resizeLast=1;html=1;" vertex="1" parent="1">
          <mxGeometry x="765" y="510" width="195" height="90" as="geometry">
            <mxRectangle x="765" y="510" width="100" height="30" as="alternateBounds" />
          </mxGeometry>
        </mxCell>
        <mxCell id="yu6-pFyYOCUdTaRoDDku-172" value="" style="shape=tableRow;horizontal=0;startSize=0;swimlaneHead=0;swimlaneBody=0;fillColor=none;collapsible=0;dropTarget=0;points=[[0,0.5],[1,0.5]];portConstraint=eastwest;top=0;left=0;right=0;bottom=1;" vertex="1" parent="yu6-pFyYOCUdTaRoDDku-171">
          <mxGeometry y="30" width="195" height="30" as="geometry" />
        </mxCell>
        <mxCell id="yu6-pFyYOCUdTaRoDDku-173" value="PK" style="shape=partialRectangle;connectable=0;fillColor=none;top=0;left=0;bottom=0;right=0;fontStyle=1;overflow=hidden;whiteSpace=wrap;html=1;" vertex="1" parent="yu6-pFyYOCUdTaRoDDku-172">
          <mxGeometry width="30" height="30" as="geometry">
            <mxRectangle width="30" height="30" as="alternateBounds" />
          </mxGeometry>
        </mxCell>
        <mxCell id="yu6-pFyYOCUdTaRoDDku-174" value="franquicia_id (INT)" style="shape=partialRectangle;connectable=0;fillColor=none;top=0;left=0;bottom=0;right=0;align=left;spacingLeft=6;fontStyle=5;overflow=hidden;whiteSpace=wrap;html=1;" vertex="1" parent="yu6-pFyYOCUdTaRoDDku-172">
          <mxGeometry x="30" width="165" height="30" as="geometry">
            <mxRectangle width="165" height="30" as="alternateBounds" />
          </mxGeometry>
        </mxCell>
        <mxCell id="yu6-pFyYOCUdTaRoDDku-175" value="" style="shape=tableRow;horizontal=0;startSize=0;swimlaneHead=0;swimlaneBody=0;fillColor=none;collapsible=0;dropTarget=0;points=[[0,0.5],[1,0.5]];portConstraint=eastwest;top=0;left=0;right=0;bottom=0;" vertex="1" parent="yu6-pFyYOCUdTaRoDDku-171">
          <mxGeometry y="60" width="195" height="30" as="geometry" />
        </mxCell>
        <mxCell id="yu6-pFyYOCUdTaRoDDku-176" value="" style="shape=partialRectangle;connectable=0;fillColor=none;top=0;left=0;bottom=0;right=0;editable=1;overflow=hidden;whiteSpace=wrap;html=1;" vertex="1" parent="yu6-pFyYOCUdTaRoDDku-175">
          <mxGeometry width="30" height="30" as="geometry">
            <mxRectangle width="30" height="30" as="alternateBounds" />
          </mxGeometry>
        </mxCell>
        <mxCell id="yu6-pFyYOCUdTaRoDDku-177" value="franquicia (VARCHAR(50))" style="shape=partialRectangle;connectable=0;fillColor=none;top=0;left=0;bottom=0;right=0;align=left;spacingLeft=6;overflow=hidden;whiteSpace=wrap;html=1;" vertex="1" parent="yu6-pFyYOCUdTaRoDDku-175">
          <mxGeometry x="30" width="165" height="30" as="geometry">
            <mxRectangle width="165" height="30" as="alternateBounds" />
          </mxGeometry>
        </mxCell>
        <mxCell id="yu6-pFyYOCUdTaRoDDku-184" value="medios" style="shape=table;startSize=30;container=1;collapsible=1;childLayout=tableLayout;fixedRows=1;rowLines=0;fontStyle=1;align=center;resizeLast=1;html=1;" vertex="1" parent="1">
          <mxGeometry x="240" y="680" width="180" height="90" as="geometry" />
        </mxCell>
        <mxCell id="yu6-pFyYOCUdTaRoDDku-185" value="" style="shape=tableRow;horizontal=0;startSize=0;swimlaneHead=0;swimlaneBody=0;fillColor=none;collapsible=0;dropTarget=0;points=[[0,0.5],[1,0.5]];portConstraint=eastwest;top=0;left=0;right=0;bottom=1;" vertex="1" parent="yu6-pFyYOCUdTaRoDDku-184">
          <mxGeometry y="30" width="180" height="30" as="geometry" />
        </mxCell>
        <mxCell id="yu6-pFyYOCUdTaRoDDku-186" value="PK" style="shape=partialRectangle;connectable=0;fillColor=none;top=0;left=0;bottom=0;right=0;fontStyle=1;overflow=hidden;whiteSpace=wrap;html=1;" vertex="1" parent="yu6-pFyYOCUdTaRoDDku-185">
          <mxGeometry width="30" height="30" as="geometry">
            <mxRectangle width="30" height="30" as="alternateBounds" />
          </mxGeometry>
        </mxCell>
        <mxCell id="yu6-pFyYOCUdTaRoDDku-187" value="medio_id (INT)" style="shape=partialRectangle;connectable=0;fillColor=none;top=0;left=0;bottom=0;right=0;align=left;spacingLeft=6;fontStyle=5;overflow=hidden;whiteSpace=wrap;html=1;" vertex="1" parent="yu6-pFyYOCUdTaRoDDku-185">
          <mxGeometry x="30" width="150" height="30" as="geometry">
            <mxRectangle width="150" height="30" as="alternateBounds" />
          </mxGeometry>
        </mxCell>
        <mxCell id="yu6-pFyYOCUdTaRoDDku-188" value="" style="shape=tableRow;horizontal=0;startSize=0;swimlaneHead=0;swimlaneBody=0;fillColor=none;collapsible=0;dropTarget=0;points=[[0,0.5],[1,0.5]];portConstraint=eastwest;top=0;left=0;right=0;bottom=0;" vertex="1" parent="yu6-pFyYOCUdTaRoDDku-184">
          <mxGeometry y="60" width="180" height="30" as="geometry" />
        </mxCell>
        <mxCell id="yu6-pFyYOCUdTaRoDDku-189" value="" style="shape=partialRectangle;connectable=0;fillColor=none;top=0;left=0;bottom=0;right=0;editable=1;overflow=hidden;whiteSpace=wrap;html=1;" vertex="1" parent="yu6-pFyYOCUdTaRoDDku-188">
          <mxGeometry width="30" height="30" as="geometry">
            <mxRectangle width="30" height="30" as="alternateBounds" />
          </mxGeometry>
        </mxCell>
        <mxCell id="yu6-pFyYOCUdTaRoDDku-190" value="medio (VARCHAR(45))" style="shape=partialRectangle;connectable=0;fillColor=none;top=0;left=0;bottom=0;right=0;align=left;spacingLeft=6;overflow=hidden;whiteSpace=wrap;html=1;" vertex="1" parent="yu6-pFyYOCUdTaRoDDku-188">
          <mxGeometry x="30" width="150" height="30" as="geometry">
            <mxRectangle width="150" height="30" as="alternateBounds" />
          </mxGeometry>
        </mxCell>
        <mxCell id="yu6-pFyYOCUdTaRoDDku-197" value="franquicias_x_personajes (INT AUTO)" style="shape=table;startSize=30;container=1;collapsible=1;childLayout=tableLayout;fixedRows=1;rowLines=0;fontStyle=1;align=center;resizeLast=1;html=1;" vertex="1" parent="1">
          <mxGeometry x="750" y="340" width="230" height="120" as="geometry">
            <mxRectangle x="750" y="340" width="240" height="30" as="alternateBounds" />
          </mxGeometry>
        </mxCell>
        <mxCell id="yu6-pFyYOCUdTaRoDDku-198" value="" style="shape=tableRow;horizontal=0;startSize=0;swimlaneHead=0;swimlaneBody=0;fillColor=none;collapsible=0;dropTarget=0;points=[[0,0.5],[1,0.5]];portConstraint=eastwest;top=0;left=0;right=0;bottom=1;" vertex="1" parent="yu6-pFyYOCUdTaRoDDku-197">
          <mxGeometry y="30" width="230" height="30" as="geometry" />
        </mxCell>
        <mxCell id="yu6-pFyYOCUdTaRoDDku-199" value="PK" style="shape=partialRectangle;connectable=0;fillColor=none;top=0;left=0;bottom=0;right=0;fontStyle=1;overflow=hidden;whiteSpace=wrap;html=1;" vertex="1" parent="yu6-pFyYOCUdTaRoDDku-198">
          <mxGeometry width="30" height="30" as="geometry">
            <mxRectangle width="30" height="30" as="alternateBounds" />
          </mxGeometry>
        </mxCell>
        <mxCell id="yu6-pFyYOCUdTaRoDDku-200" value="fxp_Id&amp;nbsp; (INT)" style="shape=partialRectangle;connectable=0;fillColor=none;top=0;left=0;bottom=0;right=0;align=left;spacingLeft=6;fontStyle=5;overflow=hidden;whiteSpace=wrap;html=1;" vertex="1" parent="yu6-pFyYOCUdTaRoDDku-198">
          <mxGeometry x="30" width="200" height="30" as="geometry">
            <mxRectangle width="200" height="30" as="alternateBounds" />
          </mxGeometry>
        </mxCell>
        <mxCell id="yu6-pFyYOCUdTaRoDDku-201" value="" style="shape=tableRow;horizontal=0;startSize=0;swimlaneHead=0;swimlaneBody=0;fillColor=none;collapsible=0;dropTarget=0;points=[[0,0.5],[1,0.5]];portConstraint=eastwest;top=0;left=0;right=0;bottom=0;" vertex="1" parent="yu6-pFyYOCUdTaRoDDku-197">
          <mxGeometry y="60" width="230" height="30" as="geometry" />
        </mxCell>
        <mxCell id="yu6-pFyYOCUdTaRoDDku-202" value="FK" style="shape=partialRectangle;connectable=0;fillColor=none;top=0;left=0;bottom=0;right=0;editable=1;overflow=hidden;whiteSpace=wrap;html=1;" vertex="1" parent="yu6-pFyYOCUdTaRoDDku-201">
          <mxGeometry width="30" height="30" as="geometry">
            <mxRectangle width="30" height="30" as="alternateBounds" />
          </mxGeometry>
        </mxCell>
        <mxCell id="yu6-pFyYOCUdTaRoDDku-203" value="&lt;b&gt;personaje_Id (INT)&lt;/b&gt;" style="shape=partialRectangle;connectable=0;fillColor=none;top=0;left=0;bottom=0;right=0;align=left;spacingLeft=6;overflow=hidden;whiteSpace=wrap;html=1;" vertex="1" parent="yu6-pFyYOCUdTaRoDDku-201">
          <mxGeometry x="30" width="200" height="30" as="geometry">
            <mxRectangle width="200" height="30" as="alternateBounds" />
          </mxGeometry>
        </mxCell>
        <mxCell id="yu6-pFyYOCUdTaRoDDku-204" value="" style="shape=tableRow;horizontal=0;startSize=0;swimlaneHead=0;swimlaneBody=0;fillColor=none;collapsible=0;dropTarget=0;points=[[0,0.5],[1,0.5]];portConstraint=eastwest;top=0;left=0;right=0;bottom=0;" vertex="1" parent="yu6-pFyYOCUdTaRoDDku-197">
          <mxGeometry y="90" width="230" height="30" as="geometry" />
        </mxCell>
        <mxCell id="yu6-pFyYOCUdTaRoDDku-205" value="FK" style="shape=partialRectangle;connectable=0;fillColor=none;top=0;left=0;bottom=0;right=0;editable=1;overflow=hidden;whiteSpace=wrap;html=1;" vertex="1" parent="yu6-pFyYOCUdTaRoDDku-204">
          <mxGeometry width="30" height="30" as="geometry">
            <mxRectangle width="30" height="30" as="alternateBounds" />
          </mxGeometry>
        </mxCell>
        <mxCell id="yu6-pFyYOCUdTaRoDDku-206" value="&lt;b&gt;franquicia_Id (INT)&lt;/b&gt;" style="shape=partialRectangle;connectable=0;fillColor=none;top=0;left=0;bottom=0;right=0;align=left;spacingLeft=6;overflow=hidden;whiteSpace=wrap;html=1;" vertex="1" parent="yu6-pFyYOCUdTaRoDDku-204">
          <mxGeometry x="30" width="200" height="30" as="geometry">
            <mxRectangle width="200" height="30" as="alternateBounds" />
          </mxGeometry>
        </mxCell>
        <mxCell id="yu6-pFyYOCUdTaRoDDku-210" value="medios_x_personajes" style="shape=table;startSize=30;container=1;collapsible=1;childLayout=tableLayout;fixedRows=1;rowLines=0;fontStyle=1;align=center;resizeLast=1;html=1;" vertex="1" parent="1">
          <mxGeometry x="240" y="465" width="180" height="120" as="geometry" />
        </mxCell>
        <mxCell id="yu6-pFyYOCUdTaRoDDku-211" value="" style="shape=tableRow;horizontal=0;startSize=0;swimlaneHead=0;swimlaneBody=0;fillColor=none;collapsible=0;dropTarget=0;points=[[0,0.5],[1,0.5]];portConstraint=eastwest;top=0;left=0;right=0;bottom=1;" vertex="1" parent="yu6-pFyYOCUdTaRoDDku-210">
          <mxGeometry y="30" width="180" height="30" as="geometry" />
        </mxCell>
        <mxCell id="yu6-pFyYOCUdTaRoDDku-212" value="PK" style="shape=partialRectangle;connectable=0;fillColor=none;top=0;left=0;bottom=0;right=0;fontStyle=1;overflow=hidden;whiteSpace=wrap;html=1;" vertex="1" parent="yu6-pFyYOCUdTaRoDDku-211">
          <mxGeometry width="30" height="30" as="geometry">
            <mxRectangle width="30" height="30" as="alternateBounds" />
          </mxGeometry>
        </mxCell>
        <mxCell id="yu6-pFyYOCUdTaRoDDku-213" value="mxp_id (INT)" style="shape=partialRectangle;connectable=0;fillColor=none;top=0;left=0;bottom=0;right=0;align=left;spacingLeft=6;fontStyle=5;overflow=hidden;whiteSpace=wrap;html=1;" vertex="1" parent="yu6-pFyYOCUdTaRoDDku-211">
          <mxGeometry x="30" width="150" height="30" as="geometry">
            <mxRectangle width="150" height="30" as="alternateBounds" />
          </mxGeometry>
        </mxCell>
        <mxCell id="yu6-pFyYOCUdTaRoDDku-214" value="" style="shape=tableRow;horizontal=0;startSize=0;swimlaneHead=0;swimlaneBody=0;fillColor=none;collapsible=0;dropTarget=0;points=[[0,0.5],[1,0.5]];portConstraint=eastwest;top=0;left=0;right=0;bottom=0;" vertex="1" parent="yu6-pFyYOCUdTaRoDDku-210">
          <mxGeometry y="60" width="180" height="30" as="geometry" />
        </mxCell>
        <mxCell id="yu6-pFyYOCUdTaRoDDku-215" value="FK" style="shape=partialRectangle;connectable=0;fillColor=none;top=0;left=0;bottom=0;right=0;editable=1;overflow=hidden;whiteSpace=wrap;html=1;" vertex="1" parent="yu6-pFyYOCUdTaRoDDku-214">
          <mxGeometry width="30" height="30" as="geometry">
            <mxRectangle width="30" height="30" as="alternateBounds" />
          </mxGeometry>
        </mxCell>
        <mxCell id="yu6-pFyYOCUdTaRoDDku-216" value="&lt;b&gt;medio_id (INT)&lt;/b&gt;" style="shape=partialRectangle;connectable=0;fillColor=none;top=0;left=0;bottom=0;right=0;align=left;spacingLeft=6;overflow=hidden;whiteSpace=wrap;html=1;" vertex="1" parent="yu6-pFyYOCUdTaRoDDku-214">
          <mxGeometry x="30" width="150" height="30" as="geometry">
            <mxRectangle width="150" height="30" as="alternateBounds" />
          </mxGeometry>
        </mxCell>
        <mxCell id="yu6-pFyYOCUdTaRoDDku-217" value="" style="shape=tableRow;horizontal=0;startSize=0;swimlaneHead=0;swimlaneBody=0;fillColor=none;collapsible=0;dropTarget=0;points=[[0,0.5],[1,0.5]];portConstraint=eastwest;top=0;left=0;right=0;bottom=0;" vertex="1" parent="yu6-pFyYOCUdTaRoDDku-210">
          <mxGeometry y="90" width="180" height="30" as="geometry" />
        </mxCell>
        <mxCell id="yu6-pFyYOCUdTaRoDDku-218" value="FK" style="shape=partialRectangle;connectable=0;fillColor=none;top=0;left=0;bottom=0;right=0;editable=1;overflow=hidden;whiteSpace=wrap;html=1;" vertex="1" parent="yu6-pFyYOCUdTaRoDDku-217">
          <mxGeometry width="30" height="30" as="geometry">
            <mxRectangle width="30" height="30" as="alternateBounds" />
          </mxGeometry>
        </mxCell>
        <mxCell id="yu6-pFyYOCUdTaRoDDku-219" value="&lt;b&gt;personaje_id (INT)&lt;/b&gt;" style="shape=partialRectangle;connectable=0;fillColor=none;top=0;left=0;bottom=0;right=0;align=left;spacingLeft=6;overflow=hidden;whiteSpace=wrap;html=1;" vertex="1" parent="yu6-pFyYOCUdTaRoDDku-217">
          <mxGeometry x="30" width="150" height="30" as="geometry">
            <mxRectangle width="150" height="30" as="alternateBounds" />
          </mxGeometry>
        </mxCell>
        <mxCell id="yu6-pFyYOCUdTaRoDDku-223" value="" style="edgeStyle=orthogonalEdgeStyle;fontSize=12;html=1;endArrow=ERoneToMany;rounded=0;startSize=8;endSize=8;entryX=1;entryY=0.5;entryDx=0;entryDy=0;exitX=0;exitY=0.5;exitDx=0;exitDy=0;" edge="1" parent="1" source="yu6-pFyYOCUdTaRoDDku-52" target="yu6-pFyYOCUdTaRoDDku-8">
          <mxGeometry width="100" height="100" relative="1" as="geometry">
            <mxPoint x="610" y="390" as="sourcePoint" />
            <mxPoint x="710" y="290" as="targetPoint" />
          </mxGeometry>
        </mxCell>
        <mxCell id="yu6-pFyYOCUdTaRoDDku-224" value="" style="edgeStyle=orthogonalEdgeStyle;fontSize=12;html=1;endArrow=ERoneToMany;rounded=0;startSize=8;endSize=8;exitX=0;exitY=0.5;exitDx=0;exitDy=0;entryX=1;entryY=0.5;entryDx=0;entryDy=0;" edge="1" parent="1" source="yu6-pFyYOCUdTaRoDDku-77" target="yu6-pFyYOCUdTaRoDDku-61">
          <mxGeometry width="100" height="100" relative="1" as="geometry">
            <mxPoint x="770" y="260" as="sourcePoint" />
            <mxPoint x="870" y="160" as="targetPoint" />
          </mxGeometry>
        </mxCell>
        <mxCell id="yu6-pFyYOCUdTaRoDDku-225" value="" style="edgeStyle=orthogonalEdgeStyle;fontSize=12;html=1;endArrow=ERoneToMany;rounded=0;startSize=8;endSize=8;exitX=1;exitY=0.5;exitDx=0;exitDy=0;entryX=0;entryY=0.5;entryDx=0;entryDy=0;" edge="1" parent="1" source="yu6-pFyYOCUdTaRoDDku-52" target="yu6-pFyYOCUdTaRoDDku-93">
          <mxGeometry width="100" height="100" relative="1" as="geometry">
            <mxPoint x="740" y="360" as="sourcePoint" />
            <mxPoint x="840" y="260" as="targetPoint" />
          </mxGeometry>
        </mxCell>
        <mxCell id="yu6-pFyYOCUdTaRoDDku-226" value="" style="edgeStyle=orthogonalEdgeStyle;fontSize=12;html=1;endArrow=ERmany;rounded=0;startSize=8;endSize=8;entryX=0;entryY=0.5;entryDx=0;entryDy=0;exitX=1;exitY=0.5;exitDx=0;exitDy=0;" edge="1" parent="1" source="yu6-pFyYOCUdTaRoDDku-103" target="yu6-pFyYOCUdTaRoDDku-11">
          <mxGeometry width="100" height="100" relative="1" as="geometry">
            <mxPoint x="170" y="275" as="sourcePoint" />
            <mxPoint x="270" y="175" as="targetPoint" />
          </mxGeometry>
        </mxCell>
        <mxCell id="yu6-pFyYOCUdTaRoDDku-227" value="paises" style="shape=table;startSize=30;container=1;collapsible=1;childLayout=tableLayout;fixedRows=1;rowLines=0;fontStyle=1;align=center;resizeLast=1;html=1;" vertex="1" parent="1">
          <mxGeometry x="40" y="140" width="180" height="90" as="geometry" />
        </mxCell>
        <mxCell id="yu6-pFyYOCUdTaRoDDku-228" value="" style="shape=tableRow;horizontal=0;startSize=0;swimlaneHead=0;swimlaneBody=0;fillColor=none;collapsible=0;dropTarget=0;points=[[0,0.5],[1,0.5]];portConstraint=eastwest;top=0;left=0;right=0;bottom=1;" vertex="1" parent="yu6-pFyYOCUdTaRoDDku-227">
          <mxGeometry y="30" width="180" height="30" as="geometry" />
        </mxCell>
        <mxCell id="yu6-pFyYOCUdTaRoDDku-229" value="PK" style="shape=partialRectangle;connectable=0;fillColor=none;top=0;left=0;bottom=0;right=0;fontStyle=1;overflow=hidden;whiteSpace=wrap;html=1;" vertex="1" parent="yu6-pFyYOCUdTaRoDDku-228">
          <mxGeometry width="30" height="30" as="geometry">
            <mxRectangle width="30" height="30" as="alternateBounds" />
          </mxGeometry>
        </mxCell>
        <mxCell id="yu6-pFyYOCUdTaRoDDku-230" value="pais_id (INT AUTO)" style="shape=partialRectangle;connectable=0;fillColor=none;top=0;left=0;bottom=0;right=0;align=left;spacingLeft=6;fontStyle=5;overflow=hidden;whiteSpace=wrap;html=1;" vertex="1" parent="yu6-pFyYOCUdTaRoDDku-228">
          <mxGeometry x="30" width="150" height="30" as="geometry">
            <mxRectangle width="150" height="30" as="alternateBounds" />
          </mxGeometry>
        </mxCell>
        <mxCell id="yu6-pFyYOCUdTaRoDDku-231" value="" style="shape=tableRow;horizontal=0;startSize=0;swimlaneHead=0;swimlaneBody=0;fillColor=none;collapsible=0;dropTarget=0;points=[[0,0.5],[1,0.5]];portConstraint=eastwest;top=0;left=0;right=0;bottom=0;" vertex="1" parent="yu6-pFyYOCUdTaRoDDku-227">
          <mxGeometry y="60" width="180" height="30" as="geometry" />
        </mxCell>
        <mxCell id="yu6-pFyYOCUdTaRoDDku-232" value="" style="shape=partialRectangle;connectable=0;fillColor=none;top=0;left=0;bottom=0;right=0;editable=1;overflow=hidden;whiteSpace=wrap;html=1;" vertex="1" parent="yu6-pFyYOCUdTaRoDDku-231">
          <mxGeometry width="30" height="30" as="geometry">
            <mxRectangle width="30" height="30" as="alternateBounds" />
          </mxGeometry>
        </mxCell>
        <mxCell id="yu6-pFyYOCUdTaRoDDku-233" value="pais (VARCHAR(50))" style="shape=partialRectangle;connectable=0;fillColor=none;top=0;left=0;bottom=0;right=0;align=left;spacingLeft=6;overflow=hidden;whiteSpace=wrap;html=1;" vertex="1" parent="yu6-pFyYOCUdTaRoDDku-231">
          <mxGeometry x="30" width="150" height="30" as="geometry">
            <mxRectangle width="150" height="30" as="alternateBounds" />
          </mxGeometry>
        </mxCell>
        <mxCell id="yu6-pFyYOCUdTaRoDDku-240" value="" style="edgeStyle=orthogonalEdgeStyle;fontSize=12;html=1;endArrow=ERoneToMany;rounded=0;startSize=8;endSize=8;entryX=0;entryY=0.5;entryDx=0;entryDy=0;exitX=1;exitY=0.5;exitDx=0;exitDy=0;" edge="1" parent="1" source="yu6-pFyYOCUdTaRoDDku-228" target="yu6-pFyYOCUdTaRoDDku-17">
          <mxGeometry width="100" height="100" relative="1" as="geometry">
            <mxPoint x="130" y="370" as="sourcePoint" />
            <mxPoint x="230" y="270" as="targetPoint" />
          </mxGeometry>
        </mxCell>
        <mxCell id="yu6-pFyYOCUdTaRoDDku-241" value="" style="edgeStyle=orthogonalEdgeStyle;fontSize=12;html=1;endArrow=ERmany;rounded=0;startSize=8;endSize=8;entryX=0;entryY=0.5;entryDx=0;entryDy=0;exitX=1;exitY=0.5;exitDx=0;exitDy=0;" edge="1" parent="1" source="yu6-pFyYOCUdTaRoDDku-120" target="yu6-pFyYOCUdTaRoDDku-64">
          <mxGeometry width="100" height="100" relative="1" as="geometry">
            <mxPoint x="190" y="530" as="sourcePoint" />
            <mxPoint x="290" y="430" as="targetPoint" />
          </mxGeometry>
        </mxCell>
        <mxCell id="yu6-pFyYOCUdTaRoDDku-242" value="" style="edgeStyle=orthogonalEdgeStyle;fontSize=12;html=1;endArrow=ERoneToMany;rounded=0;startSize=8;endSize=8;exitX=1;exitY=0.5;exitDx=0;exitDy=0;entryX=0;entryY=0.5;entryDx=0;entryDy=0;" edge="1" parent="1" source="yu6-pFyYOCUdTaRoDDku-133" target="yu6-pFyYOCUdTaRoDDku-67">
          <mxGeometry width="100" height="100" relative="1" as="geometry">
            <mxPoint x="290" y="500" as="sourcePoint" />
            <mxPoint x="390" y="400" as="targetPoint" />
          </mxGeometry>
        </mxCell>
        <mxCell id="yu6-pFyYOCUdTaRoDDku-243" value="" style="edgeStyle=orthogonalEdgeStyle;fontSize=12;html=1;endArrow=ERmany;startArrow=ERmany;rounded=0;startSize=8;endSize=8;exitX=1;exitY=0.5;exitDx=0;exitDy=0;entryX=0;entryY=0.5;entryDx=0;entryDy=0;" edge="1" parent="1" source="yu6-pFyYOCUdTaRoDDku-2" target="yu6-pFyYOCUdTaRoDDku-201">
          <mxGeometry width="100" height="100" relative="1" as="geometry">
            <mxPoint x="600" y="359.5" as="sourcePoint" />
            <mxPoint x="700" y="259.5" as="targetPoint" />
            <Array as="points">
              <mxPoint x="570" y="55" />
              <mxPoint x="570" y="415" />
            </Array>
          </mxGeometry>
        </mxCell>
        <mxCell id="yu6-pFyYOCUdTaRoDDku-244" value="" style="edgeStyle=orthogonalEdgeStyle;fontSize=12;html=1;endArrow=ERmany;startArrow=ERmany;rounded=0;startSize=8;endSize=8;entryX=1;entryY=0.5;entryDx=0;entryDy=0;exitX=1;exitY=0.5;exitDx=0;exitDy=0;" edge="1" parent="1" source="yu6-pFyYOCUdTaRoDDku-162" target="yu6-pFyYOCUdTaRoDDku-2">
          <mxGeometry width="100" height="100" relative="1" as="geometry">
            <mxPoint x="450" y="469.5" as="sourcePoint" />
            <mxPoint x="550" y="369.5" as="targetPoint" />
            <Array as="points">
              <mxPoint x="700" y="575" />
              <mxPoint x="700" y="480" />
              <mxPoint x="570" y="480" />
              <mxPoint x="570" y="55" />
            </Array>
          </mxGeometry>
        </mxCell>
        <mxCell id="yu6-pFyYOCUdTaRoDDku-245" value="" style="edgeStyle=orthogonalEdgeStyle;fontSize=12;html=1;endArrow=ERmany;startArrow=ERmany;rounded=0;startSize=8;endSize=8;entryX=1;entryY=0.5;entryDx=0;entryDy=0;exitX=1;exitY=0.5;exitDx=0;exitDy=0;" edge="1" parent="1" source="yu6-pFyYOCUdTaRoDDku-217" target="yu6-pFyYOCUdTaRoDDku-2">
          <mxGeometry width="100" height="100" relative="1" as="geometry">
            <mxPoint x="540" y="460" as="sourcePoint" />
            <mxPoint x="610" y="220" as="targetPoint" />
            <Array as="points">
              <mxPoint x="450" y="480" />
              <mxPoint x="570" y="480" />
              <mxPoint x="570" y="55" />
            </Array>
          </mxGeometry>
        </mxCell>
        <mxCell id="yu6-pFyYOCUdTaRoDDku-246" value="" style="edgeStyle=orthogonalEdgeStyle;fontSize=12;html=1;endArrow=ERmany;startArrow=ERmany;rounded=0;startSize=8;endSize=8;entryX=0;entryY=0.5;entryDx=0;entryDy=0;exitX=0;exitY=0.5;exitDx=0;exitDy=0;" edge="1" parent="1" source="yu6-pFyYOCUdTaRoDDku-214" target="yu6-pFyYOCUdTaRoDDku-185">
          <mxGeometry width="100" height="100" relative="1" as="geometry">
            <mxPoint x="79.75" y="700" as="sourcePoint" />
            <mxPoint x="179.75" y="600" as="targetPoint" />
            <Array as="points">
              <mxPoint x="220" y="540" />
              <mxPoint x="220" y="725" />
            </Array>
          </mxGeometry>
        </mxCell>
        <mxCell id="yu6-pFyYOCUdTaRoDDku-248" value="" style="edgeStyle=orthogonalEdgeStyle;fontSize=12;html=1;endArrow=ERmany;startArrow=ERmany;rounded=0;startSize=8;endSize=8;entryX=0;entryY=0.5;entryDx=0;entryDy=0;exitX=0;exitY=0.5;exitDx=0;exitDy=0;" edge="1" parent="1" source="yu6-pFyYOCUdTaRoDDku-146" target="yu6-pFyYOCUdTaRoDDku-165">
          <mxGeometry width="100" height="100" relative="1" as="geometry">
            <mxPoint x="290" y="659.5" as="sourcePoint" />
            <mxPoint x="390" y="559.5" as="targetPoint" />
            <Array as="points">
              <mxPoint x="480" y="705" />
              <mxPoint x="480" y="605" />
            </Array>
          </mxGeometry>
        </mxCell>
        <mxCell id="yu6-pFyYOCUdTaRoDDku-255" value="&lt;b&gt;&lt;font style=&quot;font-size: 35px;&quot;&gt;Modelo Relacional de la Base de Datos&lt;/font&gt;&lt;/b&gt;" style="text;strokeColor=none;fillColor=none;html=1;align=center;verticalAlign=middle;whiteSpace=wrap;rounded=0;fontSize=16;" vertex="1" parent="1">
          <mxGeometry x="35" y="-110" width="665" height="30" as="geometry" />
        </mxCell>
        <mxCell id="yu6-pFyYOCUdTaRoDDku-256" value="&lt;i&gt;&lt;b&gt;&lt;font color=&quot;#b3980e&quot; style=&quot;font-size: 29px;&quot; face=&quot;Comic Sans MS&quot;&gt;Saint Seiya&lt;/font&gt;&lt;/b&gt;&lt;/i&gt;" style="text;strokeColor=none;fillColor=none;html=1;align=center;verticalAlign=middle;whiteSpace=wrap;rounded=0;fontSize=16;" vertex="1" parent="1">
          <mxGeometry x="70" y="-60" width="210" height="30" as="geometry" />
        </mxCell>
        <mxCell id="yu6-pFyYOCUdTaRoDDku-257" value="&lt;font style=&quot;font-size: 20px;&quot;&gt;Juan Samuel Salazar AlarcÃ³n&lt;/font&gt;" style="text;strokeColor=none;fillColor=none;html=1;align=center;verticalAlign=middle;whiteSpace=wrap;rounded=0;fontSize=16;" vertex="1" parent="1">
          <mxGeometry x="80" y="810" width="280" height="30" as="geometry" />
        </mxCell>
        <mxCell id="yu6-pFyYOCUdTaRoDDku-258" value="" style="edgeStyle=orthogonalEdgeStyle;fontSize=12;html=1;endArrow=ERmany;rounded=0;startSize=8;endSize=8;entryX=0;entryY=0.5;entryDx=0;entryDy=0;exitX=1;exitY=0.5;exitDx=0;exitDy=0;" edge="1" parent="1" source="yu6-pFyYOCUdTaRoDDku-228" target="yu6-pFyYOCUdTaRoDDku-20">
          <mxGeometry width="100" height="100" relative="1" as="geometry">
            <mxPoint x="150" y="350" as="sourcePoint" />
            <mxPoint x="250" y="250" as="targetPoint" />
          </mxGeometry>
        </mxCell>
        <mxCell id="yu6-pFyYOCUdTaRoDDku-259" value="" style="edgeStyle=orthogonalEdgeStyle;fontSize=12;html=1;endArrow=ERmany;startArrow=ERmany;rounded=0;startSize=8;endSize=8;exitX=1;exitY=0.5;exitDx=0;exitDy=0;entryX=1;entryY=0.5;entryDx=0;entryDy=0;" edge="1" parent="1" source="yu6-pFyYOCUdTaRoDDku-172" target="yu6-pFyYOCUdTaRoDDku-204">
          <mxGeometry width="100" height="100" relative="1" as="geometry">
            <mxPoint x="1020" y="584" as="sourcePoint" />
            <mxPoint x="1120" y="484" as="targetPoint" />
            <Array as="points">
              <mxPoint x="1000" y="555" />
              <mxPoint x="1000" y="445" />
            </Array>
          </mxGeometry>
        </mxCell>
      </root>
    </mxGraphModel>
  </diagram>
</mxfile>
